<?xml version="1.0" standalone="no"?>
<!DOCTYPE svg PUBLIC "-//W3C//DTD SVG 20010904//EN"
 "http://www.w3.org/TR/2001/REC-SVG-20010904/DTD/svg10.dtd">
<svg version="1.0" xmlns="http://www.w3.org/2000/svg"
 width="700.000000pt" height="700.000000pt" viewBox="0 0 700.000000 700.000000"
 preserveAspectRatio="xMidYMid meet">
<metadata>
Created by potrace 1.14, written by Peter Selinger 2001-2017
</metadata>
<g transform="translate(0.000000,700.000000) scale(0.100000,-0.100000)"
fill="#000000" stroke="none">
<path d="M3310 6208 c-319 -25 -587 -253 -670 -573 -18 -69 -22 -113 -23 -319
-1 -160 -6 -241 -13 -243 -6 -2 -86 173 -178 389 -92 216 -177 401 -188 411
-28 24 -80 22 -104 -4 -17 -19 -19 -36 -18 -163 3 -229 15 -719 19 -743 2 -13
2 -23 1 -23 -2 0 -49 45 -104 99 -111 109 -260 215 -406 288 -85 43 -284 115
-351 126 -16 3 -39 8 -50 10 -11 3 -45 8 -75 12 -30 4 -64 9 -74 11 -56 10
-207 5 -223 -7 -74 -61 -254 -434 -280 -579 -2 -14 -8 -41 -13 -60 -32 -129
-35 -471 -5 -610 3 -14 10 -47 15 -73 27 -133 119 -352 207 -490 42 -67 129
-181 179 -235 l21 -23 -29 -97 c-15 -53 -33 -123 -39 -154 -6 -32 -13 -58 -14
-58 -1 0 -65 18 -141 40 -76 22 -161 47 -189 54 -27 8 -89 26 -136 40 -123 37
-149 35 -181 -12 -19 -28 -12 -66 16 -92 18 -17 330 -259 538 -418 73 -56 75
-59 82 -112 16 -111 49 -248 82 -333 8 -20 14 -39 14 -42 0 -2 -98 -79 -218
-171 -479 -370 -562 -436 -563 -450 -1 -8 -2 -20 -3 -26 -5 -33 34 -77 69 -78
11 0 106 25 210 54 105 30 320 92 479 137 278 79 289 82 303 64 57 -79 217
-240 327 -330 333 -272 798 -486 1241 -571 11 -2 43 -8 70 -14 45 -9 257 -37
295 -39 8 0 40 -3 70 -5 65 -6 420 -7 470 -2 19 2 73 7 120 11 46 3 87 8 90
10 3 1 32 6 65 10 32 3 62 8 65 10 3 1 26 6 53 9 77 11 320 74 441 116 442
152 810 386 1092 692 27 30 62 70 76 88 l27 34 168 -48 c92 -26 204 -59 248
-72 203 -61 542 -154 560 -154 27 1 52 21 65 54 15 40 -6 72 -87 133 -37 29
-131 102 -209 161 -78 60 -218 169 -313 241 -94 73 -171 133 -171 135 0 1 11
34 24 72 23 68 57 211 73 308 9 55 -16 33 410 360 217 167 233 182 233 220 -1
36 -15 57 -50 72 -21 9 -55 2 -195 -38 -93 -27 -177 -51 -185 -53 -8 -2 -62
-18 -119 -34 -58 -17 -105 -30 -106 -28 -3 5 -67 265 -72 291 -4 19 -1 33 9
40 30 23 146 175 198 261 152 251 229 530 228 825 0 214 -33 393 -107 582 -46
116 -152 306 -198 356 l-33 34 -127 -5 c-132 -6 -156 -8 -233 -26 -25 -5 -59
-12 -76 -15 -69 -12 -245 -81 -354 -138 -144 -74 -268 -166 -386 -283 -77 -77
-91 -87 -88 -66 1 14 5 152 9 306 3 154 8 346 10 426 5 144 5 146 -19 172 -29
32 -74 36 -104 10 -12 -10 -33 -47 -47 -83 -15 -36 -35 -83 -45 -105 -10 -22
-50 -116 -90 -210 -97 -228 -95 -223 -119 -278 -12 -26 -29 -66 -37 -87 -15
-36 -32 -52 -35 -32 -1 4 -3 104 -4 222 -1 118 -5 236 -9 262 -4 26 -7 49 -6
50 2 7 -49 148 -65 179 -113 223 -345 389 -580 416 -74 8 -317 9 -415 1z"/>
</g>
</svg>
