<?xml version="1.0" encoding="UTF-8"?>
<!-- Generator: Adobe Illustrator 26.1.0, SVG Export Plug-In . SVG Version: 6.00 Build 0) -->
<svg xmlns="http://www.w3.org/2000/svg" xmlns:xlink="http://www.w3.org/1999/xlink" version="1.1" id="Layer_1" x="0px" y="0px" viewBox="0 0 1347.29 493.36" style="enable-background:new 0 0 1347.29 493.36;" xml:space="preserve"> <g id="DoICmD.tif"> <g> <path d="M0,181.76c0.3-0.13,0.69-0.17,0.88-0.39c23.63-26.6,54.77-41.82,86.42-55.9c38.26-17.02,78.32-26.65,120.54-25.46 c32.34,0.91,62.71,8.1,88.31,29.19c26.45,21.79,40.42,49.32,37.69,84.17c-0.34,4.27-1.18,8.51-1.94,13.89 c23.35-15.93,48.35-22.93,76.52-19.88c-0.31-4.55-0.6-8.91-0.95-14.05c-7.27,1.76-13.95,3.38-21.13,5.11 c-0.25-3.53-0.53-6.77-0.7-10.01c-0.88-17.27-1.67-34.54-2.65-51.8c-0.18-3.08,0.97-4.51,3.57-6.15 c19.44-12.27,41.7-17.12,63.1-24.19c24.76-8.18,49.68-15.87,74.54-23.77c1.41-0.45,2.84-0.84,4.63-1.36c0,5.23,0,10.14,0,16.55 c5.75-10.46,16.27-11.87,24-17.4c2.78-1.99,4.19-0.01,5.88,1.49c22.32,19.75,44.63,39.5,66.95,59.25 c1.74,1.54,3.49,3.07,5.64,4.96c5.58-2.97,11.21-5.96,17.37-9.23c-5.48-6.52-10.58-12.58-16.09-19.12 c3.36-3.9,6.67-7.78,10.01-11.61c26.72-30.58,53.44-61.17,80.21-91.71c1.39-1.58,3.1-3.04,4.95-4.04 c6.43-3.47,12.98-6.72,20-10.31c16.89,25.14,33.73,50.21,51.01,75.94c-23.74,12.76-47.22,25.38-72.2,38.8 c28.33,1.8,52.47,10.55,73.22,29.43c1.48-8.63,2.67-16.56,4.32-24.39c0.41-1.93,2.32-3.54,3.57-5.27 c0.18-0.25,0.58-0.32,0.85-0.51c11.54-8.27,24.23-11.19,38.48-10.18c13.6,0.96,27.32,0.28,40.98,0.13 c1.98-0.02,4.08-0.87,5.88-1.79c6.66-3.41,13.18-7.08,19.85-10.48c1.39-0.71,3.17-0.94,4.77-0.94c24.67-0.06,49.33,0.05,74-0.14 c3.69-0.03,4.86,1.27,5.38,4.62c5.7,36.73,11.51,73.45,17.31,110.17c0.05,0.29,0.32,0.54,0.86,1.39 c18.72-13.02,39.62-19.6,62.68-19.79c0-9.28,0.06-18.22-0.02-27.16c-0.09-10.14-0.19-20.29-0.54-30.43 c-0.11-3.07,1.09-4.53,3.51-6.3c12.57-9.18,25.4-9.79,40.55-5.85c31.97,8.33,64.48,14.62,96.82,21.54 c3.69,0.79,5.51,2.24,5.88,5.94c0.26,2.58,0.99,5.12,1.63,8.28c4.66-2.46,8.78-4.89,13.13-6.83c1.97-0.88,4.55-1.5,6.56-1.02 c32.97,7.84,65.9,15.87,98.83,23.88c0.61,0.15,1.15,0.55,2.21,1.07c-3.22,9.82-6.38,19.55-9.61,29.26 c-29.65,89.23-59.29,178.47-89.11,267.65c-0.88,2.62-3.3,5.29-5.72,6.73c-6.12,3.63-12.46,8.59-19.07,9.21 c-6.41,0.6-13.27-3.52-19.92-5.61c-17.27-5.44-34.49-11.02-51.82-16.28c-3.87-1.17-5.19-2.96-5.03-6.97 c0.33-8.11,0.1-16.23,0.1-24.58c-25.03-3.61-49.19-7.1-74.27-10.72c1.37-12.72,2.75-25.46,4.08-37.79 c-10.89,2.77-21.6,5.49-32.61,8.29c1.11,6.81,2.14,14.02,3.5,21.16c0.68,3.58-0.53,5.28-3.52,7.52 c-12.15,9.1-24.89,9.49-39.37,6.44c-28.29-5.96-56.9-10.39-85.4-15.32c-3.79-0.66-5.54-1.86-5.77-6.2 c-0.41-7.76-1.85-15.47-2.93-23.8c-5.96,3.22-11.59,6.27-17.56,9.49c-4.04-7.35-7.94-14.42-12.09-21.97 c-5.4,2.89-10.43,5.72-15.61,8.27c-1.69,0.84-3.85,1.58-5.62,1.3c-31.67-4.96-63.31-10.08-95.61-15.27 c2.18-13.65,4.31-27,6.48-40.6c-7.61,3.68-14.72,7.66-22.23,10.6c-7.54,2.96-15.37,5.55-23.31,7.05c-4.78,0.9-5.32,2.83-5.29,6.82 c0.14,21.45-0.03,42.91,0.16,64.37c0.03,3.52-1.11,5.36-4.2,6.82c-6.29,2.97-12.37,8.63-18.64,8.78 c-6.06,0.15-12.28-5.19-18.38-8.2c-44.72-22.07-89.42-44.16-134.14-66.24c-1.76-0.87-3.54-1.67-6.14-2.89c0,2.42,0,4.16,0,5.9 c0.03,14.8-0.02,29.61,0.15,44.41c0.03,2.85-0.64,4.6-3.43,5.72c-2.92,1.17-5.79,2.62-8.39,4.37c-7.98,5.38-17.05,7-26.31,8.32 c-22.39,3.2-44.75,6.58-67.13,9.86c-1.46,0.21-2.95,0.17-4.94,0.28c-1.01-10.86-2-21.51-3.07-32.91c-1.71,1.2-2.9,1.95-3.99,2.82 c-15.86,12.6-33.17,22.21-53.53,25.2c-37.4,5.5-66.98-7.16-88.4-38.4c-0.84-1.23-1.67-2.48-2.51-3.71 c-0.09-0.12-0.27-0.18-1.06-0.67c3.21,12.4,6.29,24.26,9.37,36.13c2.62,10.11,5.1,20.27,7.95,30.32c0.79,2.79,0.08,3.94-2.14,5.6 c-12.36,9.28-25.92,15.7-40.83,20.06c-23.57,6.9-46.83,14.91-70.9,22.66c-32.21-72.89-64.37-145.66-96.78-218.99 c-6.35,2.71-12.62,5.18-18.68,8.07c-3.13,1.49-4.52,0.71-6.21-2.15C39.66,249.5,21.37,218.81,3.1,188.11 c-0.91-1.53-2.06-2.91-3.1-4.35C0,183.09,0,182.43,0,181.76z M113.41,221.47c7.12,15.88,14.05,31.37,21,46.84 c16.47,36.67,32.95,73.33,49.42,110c10.05,22.39,20.03,44.81,30.2,67.15c0.51,1.12,2.78,2.48,3.76,2.18 c15.72-4.82,31.36-9.89,47.23-14.97c-2.59-9.92-5.07-19.47-7.56-29c-7.38-28.22-14.76-56.44-22.15-84.66 c-0.63-2.4-0.58-4.13,2.04-5.8c15.89-10.14,30.2-22.12,42.25-36.73c14.86-18.02,26.19-37.58,29.56-61.18 c3.89-27.21-6.42-48.66-26.68-65.78c-15.06-12.72-32.47-20.24-52.38-23.04c-19.96-2.81-39.73-3.16-59.53-0.32 c-28.87,4.14-56.39,13-82.67,25.52c-12.34,5.88-24.28,12.6-36.95,19.23c12.78,21.55,24.96,42.1,37.29,62.91 C96.7,229.67,104.82,225.68,113.41,221.47z M1232.44,443.46c28.63-86.52,57.17-172.78,85.79-259.28 c-20.55-4.54-40.56-8.95-60.84-13.43c-9.12,37.56-18.18,74.88-27.24,112.21c-5.78-23.3-10.58-46.42-15.44-69.53 c-3.54-16.85-7.14-33.69-10.75-50.53c-0.64-3-1-5.48-5.39-6.28c-19.09-3.46-38.05-7.63-57.07-11.48 c-6.02-1.22-12.07-2.25-18.75-3.48c-0.36,7.71-0.69,14.62-1.03,21.67c6.03,1.7,11.63,3.28,17.38,4.9 c-0.4,4.17-0.76,7.94-1.11,11.7c-0.78,8.38-1.27,16.8-2.47,25.12c-0.4,2.81-0.21,4.55,1.83,6.54 c20.29,19.73,26.77,44.4,23.36,71.48c-3.4,26.96-16.79,49.21-36.56,67.78c-1.68,1.57-2.77,4.36-3.06,6.71 c-1.16,9.65-1.9,19.35-2.89,30.06c15.2,2.38,30.65,4.8,46.45,7.27c6.97-39.24,13.8-77.66,20.62-116.07 c0.3,0.03,0.6,0.05,0.91,0.08c1.23,50.63,2.46,101.25,3.7,151.98C1204.18,435.11,1218.12,439.23,1232.44,443.46z M696.88,326.71 c-3.33-0.47-6.44-0.76-9.49-1.36c-31.23-6.15-56.27-21.47-73.09-49.07c-1.03-1.69-2.84-3.29-4.66-4.03 c-11.44-4.7-22.99-9.14-34.49-13.69c-10.88-4.3-21.74-8.64-33-13.11c25.31-26.64,50.23-52.88,75.3-79.27 c-18.27-17.35-36.04-34.23-53.93-51.22c-18.37,25.71-36.43,50.98-55.15,77.16c-1.58-26.31-3.08-51.25-4.63-76.89 c-25.08,7.43-49.81,14.76-74.96,22.21c0.32,6.61,0.63,13.02,0.96,19.91c7.4-1.76,14.11-3.35,21.04-4.99 c0.84,11.21,1.53,21.61,2.4,31.99c1.19,14.16,2.42,28.33,3.87,42.47c0.25,2.41,1.14,5.26,2.74,6.96 c14.82,15.75,21.93,34.73,23.05,55.89c1.03,19.5-4.15,37.83-13.08,55.08c-1.48,2.86-2.56,5.24-1.99,8.73 c0.95,5.85,0.77,11.88,1.24,17.82c0.43,5.5,1.08,10.99,1.66,16.68c14.6-1.96,28.48-3.9,42.37-5.64c3.17-0.4,4.02-1.77,4-4.85 c-0.13-18.79-0.07-37.58-0.07-56.38c0-10.95,0-21.89,0-33.61c60.16,30.01,119.78,59.75,179.89,89.74 C696.88,359.96,696.88,343.67,696.88,326.71z M884.45,255.56c0.36-0.1,0.71-0.2,1.07-0.3c11.22,24.03,22.43,48.05,34.12,73.09 c7.79-19.99,15.16-38.91,23.07-59.19c5.62,36.97,11.02,72.52,16.39,107.84c20.61,3.12,40.55,6.13,60.5,9.14 c1.07-10.5-0.55-13.01-8.89-17.87c-26.99-15.72-41.22-39.52-42.57-70.48c-1.14-26.23,8.74-48.96,24.56-69.49 c1.58-2.05,2.4-5.41,2.12-8.01c-0.96-8.99-2.54-17.92-3.93-26.86c-3.96-25.53-7.89-51.06-12.03-76.56 c-0.22-1.33-2.33-3.33-3.6-3.36c-11.82-0.27-23.66-0.27-35.48-0.06c-1.25,0.02-3.31,1.68-3.56,2.88 c-1.93,9.48-3.53,19.03-5.2,28.56c-3.4,19.31-6.78,38.62-10.17,57.93c-0.27,0.01-0.54,0.02-0.8,0.02 c-4.73-25.61-9.47-51.21-14.23-76.96c-18.7,0-36.85-0.07-54.99,0.15c-1.27,0.02-3.33,1.98-3.62,3.33 c-1.62,7.54-2.84,15.17-4.12,22.78c-4.68,27.66-9.35,55.32-13.99,82.99c-0.63,3.74-0.15,6.74,3.54,9.35 c4.93,3.47,9.14,7.95,13.77,12.09c-7.38,7.76-14.31,15.16-21.39,22.41c-2.23,2.28-4.14,4.26-4.29,7.91 c-0.17,4.38-1.6,8.69-2.33,13.06c-1.67,9.99-3.25,20-4.92,30.39c19.46,3.35,38.31,6.59,57.54,9.9 C875.52,311.69,879.98,283.63,884.45,255.56z M792.14,170.18c-6.68-8.47-14.47-15.15-23.59-20.02 c-32.65-17.45-65.41-14.88-97.46,1.25c-37.1,18.67-54.16,55.96-43.83,95.84c8.82,34.04,39.15,54.02,75.15,56.22 c25.17,1.54,48.67-5.31,71.13-16.03c14.55-6.95,27.34-16.38,38.39-28.49c-13.06-11.69-25.89-23.17-39.1-35 c-14.27,17.77-32.21,26.4-55.73,26.21C742.62,222.95,767.18,196.78,792.14,170.18z M370.31,384.95 c5.56-0.72,11.21-1.04,16.66-2.24c24.71-5.44,44.12-19.01,58.56-39.52c13.64-19.39,20.65-40.94,16.16-64.63 c-7.69-40.57-43.19-57.98-78-52.5c-27.3,4.3-48.44,19.15-64.04,41.56c-13.08,18.8-19.64,39.71-15.44,62.7 C310.11,362.62,337.04,385.26,370.31,384.95z M988.57,296.03c0.54,4.03,0.76,9.52,2.04,14.75c8.71,35.52,42.03,53.04,76.6,46.38 c25.18-4.85,44.85-18.77,59.19-39.78c13.17-19.3,19.02-40.55,13.06-63.77c-9.09-35.42-43.81-51.14-77.05-44.43 c-15.01,3.03-28.35,9.49-40.06,19.36C1001.82,245.83,989.66,267.33,988.57,296.03z M743.72,33.81 c-9.86,11.92-19.13,23.15-28.43,34.35c-8.24,9.92-16.55,19.79-24.73,29.76c-0.78,0.96-1.47,2.74-1.11,3.77 c2.12,6.14,4.26,6.91,10.06,4.02c1.18-0.59,2.34-1.21,3.51-1.8c22.31-11.13,44.63-22.25,67.55-33.68 C761.54,57.99,752.76,46.07,743.72,33.81z M600.91,215.94c-6.9,7.47-13.7,14.84-20.3,21.99c6.52,2.48,14.25,5.42,22.05,8.39 C602.07,235.91,601.51,226.21,600.91,215.94z"/> <path d="M1288.06,445.23c0,4.28,0,8.55,0,12.83c-0.37,0.03-0.74,0.07-1.12,0.1c-0.28-2.13-0.56-4.26-0.97-7.44 c-1.45,3.18-2.48,5.43-4.02,8.83c-1.63-3.7-2.75-6.26-4.42-10.05c-0.22,3.72-0.36,6.08-0.5,8.43c-0.55,0.03-1.09,0.05-1.64,0.08 c0-3.88-0.04-7.77,0.06-11.65c0.01-0.44,0.99-1.3,1.23-1.21c0.81,0.31,1.86,0.8,2.16,1.5c1.04,2.41,1.8,4.93,3.02,8.44 c1.78-4.02,3.19-7.21,4.6-10.4C1286.99,444.87,1287.53,445.05,1288.06,445.23z"/> <path d="M1268.37,458.28c-3.24-3.89,2.67-11.03-4.93-13.05c3.31,0,6.61,0,9.92,0C1265.55,447.2,1271.47,454.34,1268.37,458.28z"/> <path d="M224.95,288.57c-2.58-8.31-4.94-15.8-7.24-23.32c-6.01-19.72-11.86-39.48-18.09-59.13c-1.24-3.9,0.01-5.15,3.29-6.58 c14.77-6.44,29.68-8.12,44.44-0.68c16.43,8.28,19.65,21.31,19.06,36.15c-0.79,19.75-12.89,32.58-27.52,43.71 C234.6,281.99,230.07,284.97,224.95,288.57z M234.39,258.26c7.59-5.53,12.19-13.1,13.24-21.14c1.76-13.39-2.79-21.13-14.49-23.64 c-3.59-0.77-7.48-0.12-12.2-0.12C225.47,228.47,229.85,243.1,234.39,258.26z"/> <path d="M685.59,250.18c-22.65-14.15-24.86-48.31-4.76-66.27c17.59-15.72,43.47-13.97,58.03,0.1c2.29,2.21,2.51,3.65,0.32,6.1 c-17.66,19.77-35.19,39.65-52.77,59.49C686.19,249.85,685.87,249.99,685.59,250.18z M718.88,190.31 c-12.42-4.72-24.04,0.66-31.26,9.02c-5.8,6.71-7.53,20.79-1.45,28.53C696.98,215.44,707.74,203.1,718.88,190.31z"/> <path d="M425.22,261.8c7.69,10.26,7.65,25.23-0.04,36.91c-8.51,12.93-20.79,18.41-36.34,17.9c-16.19-0.53-31.3-11.21-35.88-26.47 c-5.93-19.73,6.12-40.39,26.77-45.36c4.75-1.14,9.8-1.08,14.2-1.52c-4.48,3.51-9.61,6.57-13.44,10.8 c-4.35,4.8-4.61,11.09-2.59,17.26c3.46,10.58,15.24,17.04,27.58,15.2C417.02,284.8,424.41,275.78,425.22,261.8z"/> <path d="M1076.6,223.99c-19.39,5.76-22.25,17.36-20.3,25.79c3.01,13.03,15.33,18.61,26.39,17.67c10.42-0.88,22.7-8.84,21.48-23.76 c7.45,7.78,6.69,25.61-1.59,37.45c-10.51,15.04-32.77,20.36-50.86,12.15c-15.42-7-24.66-25.15-21.3-40.4 C1034.33,235.13,1052.01,221.29,1076.6,223.99z"/> </g> </g> </svg>